<?xml version="1.0" encoding="UTF-8"?>
<svg id="Logo" xmlns="http://www.w3.org/2000/svg" version="1.1" xmlns:xlink="http://www.w3.org/1999/xlink" viewBox="0 0 500 500">
  <defs>
    <style>
      .cls-1 {
        fill: #984932;
      }

      .cls-1, .cls-2, .cls-3, .cls-4, .cls-5, .cls-6, .cls-7, .cls-8, .cls-9 {
        stroke-width: 0px;
      }

      .cls-1, .cls-4, .cls-8 {
        fill-rule: evenodd;
      }

      .cls-2 {
        fill: url(#linear-gradient-5);
      }

      .cls-3, .cls-8 {
        fill: #fc3;
      }

      .cls-4 {
        fill: url(#linear-gradient);
      }

      .cls-5 {
        fill: url(#linear-gradient-2);
      }

      .cls-6 {
        fill: url(#linear-gradient-3);
      }

      .cls-7 {
        fill: #ffcd34;
      }

      .cls-9 {
        fill: url(#linear-gradient-4);
      }
    </style>
    <linearGradient id="linear-gradient" x1="117.5" y1="-127" x2="377.5" y2="-127" gradientTransform="translate(0 352)" gradientUnits="userSpaceOnUse">
      <stop offset="0" stop-color="#ecc440"/>
      <stop offset=".4" stop-color="#fffa8a"/>
      <stop offset=".7" stop-color="#ddac17"/>
      <stop offset="1" stop-color="#ffff95"/>
    </linearGradient>
    <linearGradient id="linear-gradient-2" x1="51.9" y1="40.4" x2="444.6" y2="40.4" gradientTransform="translate(0 352)" gradientUnits="userSpaceOnUse">
      <stop offset="0" stop-color="#ecc440"/>
      <stop offset="1" stop-color="#ddac17"/>
    </linearGradient>
    <linearGradient id="linear-gradient-3" x1="122" y1="-32.4" x2="381" y2="-32.4" gradientTransform="translate(0 352)" gradientUnits="userSpaceOnUse">
      <stop offset="0" stop-color="#ecc440"/>
      <stop offset="1" stop-color="#ddac17"/>
    </linearGradient>
    <linearGradient id="linear-gradient-4" x1="154.5" y1="-278.7" x2="361.9" y2="-278.7" gradientTransform="translate(0 352)" gradientUnits="userSpaceOnUse">
      <stop offset="0" stop-color="#ecc440"/>
      <stop offset="1" stop-color="#ddac17"/>
    </linearGradient>
    <linearGradient id="linear-gradient-5" x1="437.2" y1="47.7" x2="453.9" y2="47.7" gradientTransform="matrix(1,0,0,1,0,0)" xlink:href="#linear-gradient-4"/>
  </defs>
  <path class="cls-3" d="M403.7,65.4c102.5,85.4,116.5,238.2,31.1,340.7-85.3,102.5-238.2,116.4-340.7,31-49.6-41.3-80.2-99.5-86.1-163.9-5.9-64.3,13.7-127.1,55-176.7C104.4,46.8,162.6,16.2,227,10.3c64.3-5.9,127.1,13.7,176.7,55ZM99.6,430.5c98.9,82.4,246.4,69,328.7-29.9,82.3-98.9,68.9-246.3-30-328.7C299.4-10.5,152,3,69.6,101.8-12.7,200.7.7,348.1,99.6,430.5Z"/>
  <path class="cls-7" d="M444.3,75.9c-4.6,0-9-1.2-13.4-3.6-4.2-2.3-7.5-5.7-10-9.9-2.3-4.1-3.6-8.8-3.6-13.4s1.2-9.2,3.6-13.5c2.4-4.4,5.8-7.7,10.1-10,4.1-2.3,8.6-3.4,13.3-3.4s9,1.1,13.3,3.5c4.1,2.1,7.5,5.5,10,9.9,2.4,4.3,3.6,8.9,3.6,13.5s-1.2,9.2-3.6,13.4c-2.3,4.2-5.7,7.5-10.1,9.9-4.3,2.4-8.8,3.6-13.4,3.6ZM444.4,28.1c-3.7,0-7.2.9-10.4,2.7-3.3,1.7-5.9,4.3-7.7,7.6-1.9,3.4-2.8,6.9-2.8,10.5s1,7.2,2.8,10.4c1.9,3.3,4.5,5.9,7.6,7.7,3.4,1.9,6.9,2.8,10.4,2.8s7.1-1,10.4-2.8c3.4-1.9,5.9-4.4,7.7-7.6,1.9-3.3,2.8-6.8,2.8-10.4s-1-7.2-2.8-10.5c-2-3.4-4.5-5.9-7.7-7.6-3.4-1.9-6.8-2.8-10.4-2.8Z"/>
  <path class="cls-8" d="M121.8,91.8c-1.2,2.3-2.3,3.4-2.3,7v3.5c0,3.6-5.2,6.2-8.2,7v-4.7l-8.2-9.3v-7c-3.4,2.3-4.7,4.8-4.7,10.5v1.2c0,4.2,3.6,9.6,4.7,14,3.8,3.2-9.1,13.4-11.7,15.2-.7-8.9-8.2-4.1-8.2-18.7-4.7,3.4-3.5,6.3-3.5,14,.7,2.9,4.7,9.6,4.7,10.5,0,4.2-7.1,13.3-9.3,17.5-5.5-3.7-9.3-7.2-9.3-16.3-1.4,1.6-3.5,3-3.5,5.8v5.8c0,6.2,3.6,12.1,5.8,16.3l-7.4,15-.8.9-6.9-14.1,1.2-.6c-1.9,2.2-3.5,5.3-3.5,9.3,0,11.1,7.5,16.1,3.5,24.5l-2.3,11.7c-4.5-1.2-5.9-3.6-7-8.2v-5.8c-3,2.2-3.5,6.5-3.5,11.7v2.3c0,3.7,5.3,13.8,7,16.3l-1.2,9.3v11.7c-5.1-1.4-6.5-4.6-7-10.5-2,1.4-2.3.2-2.3,3.5v9.3c0,3.1,6.6,12.9,7.8,15.2l.7,25-7.4-11c-.6,2.6-1.2,2.7-1.2,5.8,0,7,6.3,18.4,11.7,19.8v8.2c0,1.9.7,3.5,2.3,3.5s8.3-8.8,11.2-10.9c4.3-3.1,7.4-8.9,7.4-15.9-3.6,2.6-2.6,4.9-7.1,6.9-4,1.8-6.1,1.3-10.2,3.6l-1.3-12.8v-8.2c0-7.6,15.2-4.1,15.2-23.3-3,3.5-6.3,8.2-12.8,8.2h-3.5v-19.8c0-6.2,20.6-3.6,21-19.8-3.7,2.5-4.7,5.8-10.5,5.8h-8.8c0-.1,4.1-22.2,4.1-22.2h5.8c7.9,0,17-4.3,18.7-10.5-2.2.5-6.7,2.3-8.2,2.3-4.6,0-5.9-2.3-10.5-2.3s-2.4,1.6-3.8,2.2l7.3-19.9,10.5,1.3c6.8,1,11.5-2.2,14-5.8-16.3,0-11.2-4.5-20.5-5.1l10-14.8c12.7,0,18,2.2,23.3-5.8l-.4,1.2-16.2-5-.7-1.6,13.8-15.6c2.6,1.3,8.8,2.3,12.8,2.3s9.5-3.7,11.7-7l-11.8.2-4.5-3.7c1.5-2.2,12.1-11.8,14.7-13.3,4.6-2.5,6.9-1.1,10.6-3.4,2.7-1.7,4.2-4.5,7.4-6.6l-1.1-.5,7-15.8h-4.7c-10.4,0-15.9,4.4-19.9,10.5"/>
  <path class="cls-8" d="M250.4,95.5c85.9,0,155.6,69.7,155.6,155.6s-69.7,155.6-155.6,155.6-155.6-69.7-155.6-155.6S164.4,95.5,250.4,95.5M250.4,86.9c90.7,0,164.2,73.6,164.2,164.2s-73.6,164.3-164.2,164.3-164.3-73.6-164.3-164.3S159.7,86.9,250.4,86.9Z"/>
  <path class="cls-1" d="M233,232.6c-12.9,32.9-31.9,50.1-54.7,57.1-14.1,4.3-27.2,2.1-31.6-13.1-3.8-13.3-1.4-26.8,17.4-37.6,9.7-5.6,21-8.3,33.6-7.9,11.7.2,23.5.9,35.3,1.5M260.8,228.5c7.3-19.9,15-39.7,22.3-59.5,1.6-4.3,1.5-7.8-.7-5.8-17.5,15.5-28.4,39.6-38.4,65v.3c-.1,0,16.8,0,16.8,0h0ZM361.5,164.8c9.2,0,16.8,7.5,16.8,16.8s-7.5,16.8-16.8,16.8-16.8-7.5-16.8-16.8,7.6-16.8,16.8-16.8ZM241.4,233.8c-22.3,43.6-49.8,63-81.7,62.7-24.3-.2-47.2-11.5-39.1-36.6,5.7-17.8,22.3-25.7,43-29.8,10.1-2,24.9-5.1,72.9-1.8,20.1-51.5,38.7-67.9,50.7-69.9,18-3,25.6,4.8,22.6,22.9-5,15.5-10,31.1-15,46.6l-.2.4h16.8l-2.6,4.5h-15.9l-17.6,46.6c-2.2,11.6,5.9,13.7,17.8,8.8,8-3.3,15.4-7.8,22.9-12.1-.4-2.2-.3-4.6.1-7.3,6.2-17.1,12.3-34.2,18.5-51.3,10.3-2.3,20.6-4.6,30.9-6.8-6.9,20.6-13.9,41.2-20.8,61.8-2.8,9.6.9,13.2,8.6,12.6,6.6-.5,14.6-5.6,23.3-12.8l2.3,2.3c-11.5,12.9-28.2,16.7-48.5,14.2-6.8-1.4-11.1-4.2-13.2-8.5-15.4,11.8-33.6,17.9-54.3,15.4-16.1-2-20.5-13.5-16.7-25.4,4-12.5,8.3-25,12.8-37.4h-17.4l-.2.9Z"/>
  <path class="cls-4" d="M231.6,230.4c-12.9,32.9-31.9,50.2-54.7,57.1-14.1,4.3-27.2,2.1-31.6-13.1-3.8-13.3-1.4-26.8,17.4-37.6,9.7-5.6,21-8.3,33.6-7.9,11.7.2,23.5,1,35.3,1.5M259.3,226.4c7.3-19.9,15-39.7,22.3-59.5,1.6-4.3,1.5-7.8-.7-5.8-17.5,15.5-28.4,39.6-38.4,65v.3c-.1,0,16.8,0,16.8,0ZM360.1,162.7c9.2,0,16.8,7.5,16.8,16.8s-7.5,16.8-16.8,16.8-16.8-7.5-16.8-16.8,7.6-16.8,16.8-16.8ZM240,231.6c-22.3,43.6-49.8,63-81.7,62.7-24.3-.2-47.2-11.5-39.1-36.6,5.7-17.8,22.3-25.7,43-29.7,10.1-2,24.9-5.1,72.9-1.8,20.1-51.5,38.7-67.9,50.7-69.9,18-3,25.6,4.8,22.6,22.9-5,15.5-10,31.1-15,46.6l-.2.4h16.8l-2.6,4.5h-15.9l-17.6,46.6c-2.2,11.6,5.9,13.7,17.8,8.8,8-3.3,15.4-7.8,22.9-12.1-.4-2.2-.3-4.6.1-7.3,6.2-17.1,12.3-34.2,18.5-51.3,10.3-2.3,20.6-4.6,30.9-6.8-6.9,20.6-13.9,41.2-20.8,61.8-2.8,9.6.9,13.2,8.6,12.6,6.6-.5,14.6-5.6,23.3-12.8l2.3,2.3c-11.5,12.9-28.2,16.7-48.5,14.2-6.8-1.4-11.1-4.2-13.2-8.5-15.4,11.8-33.6,17.9-54.3,15.4-16.1-2-20.5-13.5-16.7-25.4,4-12.6,8.3-25,12.8-37.4h-17.4l-.2.8Z"/>
  <path class="cls-5" d="M423.2,323.3l-5.8,10.1c-1.7-1-3.4-1.2-5.1-.5s-3.1,2-4.3,4.1c-.9,1.6-1.3,3.1-1.1,4.5.2,1.4.9,2.4,2,3.1,1.9,1.1,4.8-.7,8.8-5.4,1.3-1.5,2.3-2.7,3-3.5,3.2-3.6,6.2-5.9,9-6.7,2.8-.8,5.6-.4,8.6,1.3,3.6,2.1,5.7,5.4,6.2,9.9s-.8,9.3-3.8,14.5c-3.1,5.5-6.6,9.1-10.5,10.9-3.8,1.8-7.7,1.6-11.5-.7h-.2c0-.1,5.9-10.3,5.9-10.3l.6.4c1.8,1,3.5,1.2,5.1.5,1.6-.6,3.1-2.1,4.4-4.5,1.2-2.1,1.8-4,1.6-5.8-.1-1.8-.9-3-2.3-3.9-.5-.3-1.1-.5-1.7-.5s-1.2.1-1.7.5c-1,.6-2.4,2-4.3,4.4-1.9,2.3-3.3,4-4.4,5.1-3.3,3.4-6.2,5.5-8.8,6.3-2.5.7-5.2.3-8-1.3-3.7-2.1-5.8-5.3-6.2-9.4-.4-4.1.8-8.7,3.8-13.8,2.8-4.8,6-8,9.5-9.6,3.7-1.7,7.4-1.6,11.2.3M367.8,379.7l21-22.5,6.2,5.8-13.2,14.1,5.3,5,10.9-11.6,6.2,5.8-10.9,11.6,6.4,6,13.2-14.2,6.2,5.8-20.9,22.5-30.4-28.3ZM347.6,395.3l9.6-7,24.5,33.6-9.6,7-24.5-33.6ZM303.7,417.8l15.3-7.1c3-1.4,5.4-2.4,7.2-3.1,1.9-.7,3.5-1.1,5-1.3,2.4-.4,4.6-.1,6.5,1,1.9,1,3.4,2.6,4.4,4.8,1.1,2.4,1.4,4.7.9,6.9-.5,2.1-1.8,3.8-3.8,5v.3c2.5-.7,4.5-.6,5.8.1,1.4.7,2.9,2.8,4.4,6.1l1.4,2.9c.9,2,1.8,3.4,2.5,4.2.8.9,1.7,1.5,2.7,1.8l-11.5,5.4c-.5-.3-1-.9-1.5-1.5s-1.1-1.8-1.8-3.4l-.9-1.9c-.4-.9-.8-1.6-1-2.1s-.5-.9-.7-1.4c-.8-1.5-1.8-2.3-2.9-2.6-1.1-.3-2.6,0-4.5.9l-6.6,3.1,7,14.9-10.3,4.8-17.6-37.8ZM317.6,420.6l3.5,7.6,7.2-3.4c1.9-.9,3.2-1.9,4-3,.7-1.1.8-2.3.2-3.5-.6-1.2-1.5-2-2.8-2.1-1.3-.2-2.9.2-4.9,1.1l-7.2,3.3ZM260.4,426.3l35.8-7,1.6,8.5-12.2,2.4,6.3,32.4-11.5,2.2-6.3-32.4-12.1,2.4-1.6-8.5ZM253.6,437.9l-11.6-1c.2-2-.4-3.6-1.6-4.8-1.3-1.2-3.1-1.9-5.5-2.1-1.8-.2-3.3.1-4.5.9s-1.9,1.8-2,3.1c-.2,2.2,2.7,4.1,8.6,5.7,1.9.5,3.4.9,4.5,1.2,4.6,1.4,7.9,3.1,9.9,5.3,1.9,2.2,2.8,4.9,2.5,8.3-.4,4.2-2.5,7.5-6.4,9.8s-8.8,3.2-14.7,2.7c-6.3-.5-11-2.2-14.3-4.9-3.2-2.7-4.6-6.3-4.3-10.7v-.3l11.7,1v.7c-.3,2,.3,3.6,1.6,4.8,1.3,1.2,3.2,1.9,5.9,2.1,2.4.2,4.4-.1,6-1s2.4-2.1,2.5-3.7c.1-.6,0-1.2-.3-1.8-.2-.5-.6-1-1.1-1.3-1-.7-2.9-1.3-5.8-2-2.9-.7-5.1-1.3-6.5-1.8-4.5-1.5-7.6-3.3-9.4-5.3-1.7-2-2.5-4.6-2.2-7.8.4-4.3,2.3-7.5,5.9-9.6,3.5-2.1,8.2-2.9,14.1-2.4,5.5.5,9.8,2,12.8,4.6,2.8,2.6,4.2,6,4.2,10.3ZM173.4,406.8l10.7,4.5-9.7,22.9c-1.2,2.9-1.5,5.3-.8,7.3s2.3,3.5,4.8,4.6,4.7,1.1,6.6.2c1.9-.9,3.4-2.8,4.7-5.7l9.7-22.9,10.7,4.5-9.8,23c-1.2,2.8-2.3,4.9-3.4,6.3-1.1,1.4-2.3,2.6-3.7,3.4-2.2,1.3-4.9,1.8-7.9,1.6-3-.2-6.5-1.1-10.3-2.7s-6.8-3.5-9.1-5.5c-2.3-2.1-3.7-4.4-4.4-6.8-.4-1.6-.4-3.3-.1-5s1-4,2.2-6.8l9.8-22.9ZM131.3,379l12.7,9.6c3.1,2.4,5.6,4.5,7.4,6.4,1.8,1.9,3.1,3.8,4,5.6,1.5,3.2,2,6.5,1.4,9.9s-2.1,6.9-4.7,10.3c-2.6,3.4-5.4,5.8-8.5,7.3s-6.4,1.9-9.9,1.4c-2-.3-4.2-1.1-6.5-2.3-2.3-1.2-5.1-3-8.2-5.4l-12.7-9.6,25-33.2ZM135.5,392.8l-14.7,19.6,3.3,2.5c3.5,2.6,6.8,3.8,9.8,3.5,3.1-.3,5.8-2,8.2-5.2s3.3-6.3,2.8-9.4c-.6-3-2.6-5.9-6.1-8.5l-3.3-2.5ZM99.1,339l10.1,12.9-14.9,28.4v.2c0,0,23.2-18,23.2-18l7,8.9-32.9,25.6-10.1-13,15.5-28.6-.2-.3-23.5,18.4-7-8.9,32.8-25.6ZM89.9,317.6l4.8,10.9-38,16.9-4.8-10.9,38-16.9Z"/>
  <path class="cls-8" d="M389.6,97.5c1,2.2,2,3.3,1.7,6.7l-.2,3.3c-.3,3.4,4.5,6,7.3,6.8l.3-4.5,8.4-8.8.5-6.7c3.1,2.2,4.1,4.6,3.7,10.1v1.1c-.4,4-4.2,9.1-5.5,13.3-3.8,3,7.6,12.9,10,14.6,1.3-8.5,8-3.8,9.1-17.8,4.2,3.3,2.9,6.1,2.3,13.4-.9,2.8-5.1,9.1-5.2,10-.3,4,5.8,12.8,7.6,16.8,5.5-3.5,9.4-6.8,10-15.5,1.2,1.5,3.1,2.9,2.9,5.6l-.4,5.6c-.4,5.9-4.2,11.5-6.6,15.5l6,14.4.7.9,7.5-13.4-1.1-.6c1.7,2.1,3,5.1,2.7,8.9-.8,10.6-8.3,15.4-5.1,23.4l1.4,11.2c4.3-1.1,5.9-3.4,7.2-7.7l.4-5.6c2.7,2.1,2.9,6.2,2.5,11.2l-.2,2.2c-.3,3.5-6,13.1-7.8,15.5l.5,8.9-.8,11.1c4.9-1.2,6.5-4.3,7.4-10,1.8,1.3,2.2.2,2,3.4l-.7,8.9c-.2,3-7.2,12.2-8.5,14.4l-2.4,23.9,7.8-10.5c.4,2.5.9,2.6.7,5.6-.5,6.7-7.3,17.5-12.5,18.8l-.6,7.8c-.1,1.8-.9,3.3-2.5,3.3s-7.2-8.5-9.9-10.5c-3.9-3-6.4-8.5-6-15.2,3.2,2.5,2.2,4.7,6.3,6.6,3.7,1.7,5.7,1.3,9.5,3.5l2.2-12.2.6-7.8c.5-7.3-14.1-4-12.8-22.4,2.6,3.4,5.4,7.9,11.6,7.9h3.3l1.4-18.9c.4-6-19.4-3.6-18.6-19.1,3.4,2.4,4,5.6,9.6,5.7h8.4l-2.4-21.1h-5.5c-7.5-.2-15.9-4.3-17-10.3,2.1.5,6.2,2.3,7.6,2.3,4.4,0,5.7-2.2,10.1-2.1.7,0,2.2,1.6,3.5,2.2l-5.6-19-10,1.1c-6.5.9-10.8-2.2-12.9-5.7,15.5.1,11-4.2,19.8-4.6l-8.5-14.2c-12-.1-17.2,1.9-21.8-5.8l.3,1.1,15.8-4.6.8-1.6-12-15c-2.6,1.2-8.5,2.1-12.4,2.1-5.1-.1-8.7-3.6-10.6-6.8l11.2.3,4.5-3.5c-1.3-2.1-10.7-11.4-13-12.8-4.1-2.4-6.4-1.1-9.8-3.4-2.5-1.7-3.7-4.3-6.6-6.4l1.1-.5-5.5-15.2h4.4c10,.2,14.9,4.5,18.4,10.4"/>
  <path class="cls-6" d="M380.9,314.3h-2.5v17.6h-3.4v-17.6h-3v-2.6h9v2.6h-.1ZM367.9,321.8v-7.5h-4.1v7.5c0,.7.2,1.2.5,1.6s.9.6,1.6.6,1.2-.2,1.5-.6c.3-.4.5-1,.5-1.6ZM372.5,314.3h-1.2v7.5c0,1.2-.5,2.4-1.6,3.4s-2.3,1.5-3.8,1.5-2.8-.5-3.9-1.5-1.6-2.1-1.6-3.4v-7.5h-2.6v-2.6h14.8v2.6h0ZM356.6,312.5c.2-.1.3,0,.4.3,0,.2-.1.3-.3.3s-.3-.1-.3-.2c-.1-.2,0-.4.2-.4ZM358.3,314.3h-3.4v5c0,.5-.1,1-.3,1.5-.2.5-.5,1-1.1,1.4-.5.4-1.2.6-2.2.8-.3,0-.7,0-1.2.1.3.5.6.9.8,1.2.6.9,1.1,1.5,1.5,2.1.6.7,1.3,1.5,2.2,2.5.3.3.7.8,1.3,1.3l-2.5,2.1c-.8-.9-1.4-1.6-1.9-2.2-1.5-1.8-2.8-3.5-3.9-5.1-1-1.5-2.1-3.1-3.3-5-.2-.3-.5-.8-.8-1.2l2.6-1.7c.4.8.8,1.4,1,1.7.9,1.2,1.8,1.7,2.9,1.7s1-.3,1.2-.8c0-.2.1-.4.2-.8v-4.5h-9.6v-2.6h16.5v2.5h0ZM333.3,312.5c.2-.1.3,0,.4.3,0,.2-.1.3-.3.3s-.3-.1-.3-.2c-.1-.2,0-.4.2-.4ZM342.4,314.3h-10.7v4.8c.4-.3.6-.6.9-.7.8-.5,1.7-.7,2.6-.7,1.4,0,2.7.5,3.7,1.6,1,1,1.5,2.3,1.5,3.8s-.6,3.4-2,5.2c-.4.6-1.1,1.4-2,2.2l-2.5-1.9c.7-.7,1.2-1.2,1.5-1.6,1-1.3,1.5-2.6,1.5-3.8s-.2-1.6-.5-2.1-1-.8-1.8-.8-1.9.5-2.7,1.6c-.1.2-.3.4-.5.8v9.1h-3.4v-4.8c-.4.2-.7.4-1,.5-.8.4-1.6.5-2.3.5-1.6,0-3-.5-4-1.5s-1.7-2.5-1.7-4.4,1.1-4.2,3.4-5.2c.8-.3,1.9-.5,3.4-.6l.7,2.7c-1,0-1.7.1-2.2.2-1.5.4-2.2,1.4-2.2,2.7s.2,1.8.7,2.3,1.1.9,1.9.9,1.6-.3,2.3-1c.2-.2.5-.5.8-1v-9.2h-11.2v-2.6h25.2l.6,3h0ZM331.2,311.9h-3.5c-1.2-1.5-2.2-2.6-3-3.4-2.4-2.3-4.5-3.4-6.5-3.4s-4.2,1.3-4.2,3.8.1,1.5.3,2.1c0,.2.2.4.4.7h2.9v2.6h-2.5v17.6h-3.4v-17.6h-3v-2.6h3.1c-.2-.3-.3-.6-.4-.9-.3-.8-.4-1.5-.4-2.2,0-2,.6-3.6,1.9-4.6s3.1-1.5,5.4-1.5,4,.8,6.2,2.4c1.6,1.2,3.2,2.7,4.8,4.5.7.8,1.3,1.7,1.9,2.5ZM294.9,304.8c-.1-.1-.2-.1-.3-.2-.3-.1-.7-.2-1.2-.2s-1.3.2-1.8.5c-.7.5-1,1.2-1,2.1s.4,2.3,1.3,3.4c.3.4.7.9,1.3,1.4h-2.2c-.6-.6-1.1-1.2-1.4-1.6-1-1.4-1.5-2.7-1.5-4s.4-2.4,1.2-3,1.8-.9,3-.9,1.3,0,1.7.2c.4.1.7.2,1,.3v2h-.1ZM296.9,314.3h-3.9v5h-7.4c-.1,0-.2.1-.4.2-.2.1-.2.3-.2.5s.1.6.5,1c.8,1.1,1.4,1.6,2,1.6s.9-.1,1.8-.4,1.6-.4,2.2-.4c.9,0,1.7.3,2.2.9s.8,1.5.8,2.7-.4,2.8-1.3,3.9c-1.3,1.6-2.4,2.3-3.3,2.1.1.1.5.4,1,.8s.9.6.9.7c.5.4.9.6,1.1.8.5.3,1,.5,1.5.8l-1.7,2.6c-.7-.5-1.4-.9-2-1.4-.5-.4-1.1-.9-2-1.6-.4-.4-.9-.8-1.4-1.3l-.9-.9h-1.5c-.9,0-1.7-.2-2.4-.7-.7-.5-1-1.2-1-2s.2-1.1.6-1.5,1-.6,1.7-.6,1.6.4,2.5,1.1c.3.2.6.6,1,1.1.2.3.9.2,2.2-.3s1.9-1.5,1.9-3.1-.3-1.1-.9-1.1-.9.1-1.8.4c-.5.1-.8.2-1.1.2-1.5,0-3-.8-4.5-2.4-1.2-1.4-1.9-2.8-1.9-3.9s.2-1.1.6-1.5.9-.6,1.5-.6h6.5v-2.6h-10.5v-2.6h17.5v2.5h0ZM280,314.3h-2.5v17.6h-3.5v-17.6h-3v-2.6h9v2.6h0ZM274.1,321.9h-6.1v3c0,.3-.1.5-.2.7s-.4.3-.9.3-1.5-.7-2.7-2.1-1.8-2.5-1.8-3.1.2-1,.7-1.3c.1-.1.4-.2.7-.2h10.3v2.7h0ZM271.6,314.3h-11.3v-2.6h11.3v2.6ZM247.7,314.3h-2.5v17.6h-3.4v-17.6h-3v-2.6h3.1c-.3-1.6-.7-2.8-1-3.6-1.1-2.4-2.6-3.6-4.6-3.6s-1.5.2-2,.7-.8,1.1-.8,2,.3,1.9.8,2.9c.6,1.1.9,1.7,1.1,1.7h-3.4c-.4-.4-.8-1.1-1.2-2.1s-.6-1.9-.6-2.8c0-1.5.5-2.7,1.4-3.6s2.2-1.3,3.9-1.3,4.5.8,6.1,2.4c1.2,1.2,2.1,2.7,2.7,4.6.2.9.4,1.7.6,2.5h2.7v2.8h.1ZM230.3,312.5c.2-.1.3,0,.4.3,0,.2-.1.3-.3.3s-.3-.1-.3-.2c0-.2,0-.4.2-.4ZM239.4,314.3h-10.7v4.8c.4-.3.6-.6.9-.7.8-.5,1.7-.7,2.6-.7,1.4,0,2.7.5,3.7,1.6,1,1,1.6,2.3,1.6,3.8s-.6,3.4-2,5.2c-.4.6-1.1,1.4-2,2.2l-2.5-1.9c.7-.7,1.2-1.2,1.6-1.6,1-1.3,1.6-2.6,1.6-3.8s-.2-1.6-.5-2.1-.9-.8-1.8-.8-1.9.5-2.7,1.6c-.1.2-.3.4-.4.8v9.1h-3.4v-4.8c-.4.2-.7.4-1,.5-.8.4-1.6.5-2.3.5-1.6,0-3-.5-4-1.5s-1.7-2.5-1.7-4.4,1.1-4.2,3.4-5.2c.8-.3,1.9-.5,3.4-.6l.7,2.7c-1,0-1.7.1-2.2.2-1.5.4-2.2,1.4-2.2,2.7s.2,1.8.7,2.3,1.1.9,1.9.9,1.6-.3,2.3-1c.2-.2.5-.5.8-1v-9.2h-11.2v-2.6h25.2l.2,3h0ZM199,312.5c.2-.1.3,0,.4.3,0,.2-.1.3-.3.3s-.3-.1-.3-.2c0-.2,0-.4.2-.4ZM201.6,314.3h-4.2v5.6h-7.6c-.6,0-1.1.2-1.7.7-.5.5-.8,1.1-.8,1.9,0,1.6.9,2.8,2.6,3.4.9.3,1.9.4,3.3.4,0-.9.1-1.5.2-1.8.4-.9,1.2-1.4,2.4-1.4s1.2.2,1.7.7.7,1,.7,1.7-.3,1.6-.8,2.2c-.2.2-.5.4-.9.7l.7,1.8c.3.7.5,1.1.6,1.4.1.1.1.2.2.3l-3.1.7c-.1,0-.1-.1-.1-.2-.2-.3-.3-.7-.4-1.2-.2-.5-.3-1-.4-1.3-.1-.4-.1-.6-.1-.9h-.6c-3.1,0-5.6-.6-7.2-1.8s-2.6-2.9-2.6-5,.5-2.6,1.5-3.5,2.1-1.4,3.5-1.4h5.3v-3h-12.1v-2.6h19.8v2.6h.1ZM182.3,314.3h-2.5v17.6h-3.4v-17.6h-3v-2.6h3.1c-.3-1.6-.7-2.8-1-3.6-1.1-2.4-2.6-3.6-4.6-3.6s-1.5.2-2,.7-.8,1.1-.8,2,.3,1.9.8,2.9c.6,1.1.9,1.7,1.1,1.7h-3.3c-.4-.4-.8-1.1-1.2-2.1s-.6-1.9-.6-2.8c0-1.5.5-2.7,1.4-3.6s2.2-1.3,3.9-1.3,4.5.8,6.1,2.4c1.2,1.2,2.1,2.7,2.7,4.6.2.9.4,1.7.6,2.5h2.7v2.8ZM173.9,314.3h-2.5v17.6h-3.4v-17.6h-3v-2.6h8.9v2.6h0ZM168.1,323.1h-6v2.1c0,.3,0,.5-.1.7-.2.4-.5.6-.9.6-.6,0-1.6-.7-3-2s-2.1-2.3-2.1-2.9.2-.8.6-1c.1,0,.4-.1.6-.2h1.7v-6.1h-4.7v-2.6h11.3v2.6h-3.4v6.1h6v2.7h0ZM157.3,323.1h-6v2.1c0,.3,0,.5-.1.7-.2.4-.5.6-.9.6-.6,0-1.6-.7-3-2s-2.1-2.3-2.1-2.9.2-.8.6-1c.1,0,.4-.1.6-.2h1.7v-6.1h-4.7v-2.6h11.3v2.6h-3.4v6.1h6v2.7h0ZM143.8,314.3h-4.2c.7.9,1.1,1.8,1.1,2.6s-.2,1.6-.7,2.3c-.5.7-.9,1.2-1.5,1.5.9.5,1.6,1.1,2.2,2,.6.8.9,1.8.9,2.9,0,1.8-.6,3.3-1.8,4.5s-2.7,1.8-4.4,1.8-4.3-1.1-6.2-3.3c-1.4-1.5-2.7-3.6-4-6.2-.5-1.1-1-2.3-1.4-3.4l2.8-1.7c.4,1,.8,2,1.1,3.1.9,2.3,2,4.2,3.1,5.7,1.5,2,3,3.1,4.4,3.1s1.7-.3,2.2-1,.8-1.5.8-2.4-.2-1.6-.6-2.3c-.4-.7-1-1-1.7-1h-3.9l-1.3-2.7h4.5c.5,0,1-.3,1.4-.9s.6-1.2.6-1.9-.1-1-.4-1.5c-.2-.5-.5-.9-.7-1.1h-14.1v-2.6h21.7v2.5h.1Z"/>
  <rect class="cls-3" x="123.1" y="339.9" width="256.9" height="2.9"/>
  <path class="cls-9" d="M349.3,59.6l12.6,7.3-7,44-10.9-6.3,1.8-8.1-14.1-8.1-6.2,5.6-10.9-6.3,34.7-28.1ZM350.4,71.8l-12,10.7,9.1,5.2,3.3-15.8h-.4ZM272,36.4l11.4,2-2.7,15.6,14.4,2.5,2.8-15.6,11.5,2-7.2,41-11.5-2,3-17-14.4-2.5-3,17-11.4-2,7.1-41ZM244.2,46.9l-11.5,1.4c-.2-2-1.1-3.4-2.6-4.4-1.5-.9-3.4-1.2-5.9-1-1.8.2-3.2.8-4.2,1.8s-1.4,2.2-1.3,3.5c.3,2.2,3.5,3.4,9.6,3.8,2,0,3.5.2,4.6.3,4.8.4,8.4,1.4,10.8,3.1,2.4,1.7,3.7,4.2,4.1,7.6.5,4.2-.9,7.8-4.2,10.9s-7.9,5-13.8,5.7c-6.3.8-11.2.2-15-1.8-3.7-2-5.9-5.2-6.4-9.6v-.3l11.6-1.4v.7c.3,2,1.2,3.5,2.7,4.4s3.6,1.2,6.2.9c2.4-.3,4.3-1,5.6-2.2s1.9-2.5,1.7-4.1c-.1-.6-.3-1.2-.6-1.7-.4-.5-.8-.8-1.4-1.1-1.1-.4-3.1-.7-6.1-.8s-5.2-.2-6.7-.4c-4.7-.6-8.2-1.6-10.3-3.2-2.1-1.6-3.4-4-3.8-7.2-.5-4.3.7-7.8,3.7-10.6,3-2.8,7.4-4.6,13.3-5.3,5.5-.7,10,0,13.4,1.8,3.6,2,5.7,5.1,6.5,9.2ZM154.5,57.8l13.3-5.9,31.5,31.5-11.5,5.1-5.5-6.2-14.8,6.6.9,8.3-11.4,5.1-2.5-44.5ZM164.9,64l1.6,16,9.6-4.3-10.8-11.9-.4.2Z"/>
  <path class="cls-2" d="M437.2,36.3c1.6-.3,4-.5,6.5-.5s5.7.6,7.3,1.9c1.3,1.1,2,2.7,2,4.7,0,3-2.1,5.1-4.3,5.9h0c1.7.7,2.7,2.4,3.3,4.7.7,2.9,1.4,5.7,1.9,6.6h-4.4c-.3-.7-.9-2.6-1.6-5.6-.7-3.1-1.8-4.1-4.2-4.1h-2.2v9.7h-4.3v-23.3ZM441.5,46.8h2.6c2.9,0,4.7-1.5,4.7-3.9s-1.8-3.8-4.6-3.8-2.2.1-2.7.2v7.5Z"/>
</svg>